# xmcd
#
# Track frame offsets: 
#        150
#        8792
#        52117
#        85145
#        107850
#        153372
#        192670
#        216850
#        249095
#        270612
#
# Disc length: 4125 seconds
#
# Revision: 0
# Processed by: cddbd v1.5PL3 Copyright (c) Steve Scherf et al.
# Submitted via: ExactAudioCopy v0.95a3
#
DISCID=85101b0a
DTITLE=RICHARD PINHAS - CYBORG SLLY
DYEAR=1994
DGENRE=
TTITLE0=Intro: Hyperion
TTITLE1=Cyborg Sally
TTITLE2=Derita (Toward A Creepy Afternoon)
TTITLE3=Rock Machine: Red Ripe Anarchy
TTITLE4=Gilles Deleuze:Beyond Hyperion
TTITLE5=Nuke (The Ultimate "Interface" Interstellar Part)
TTITLE6=Moira
TTITLE7=Wag (Variation Sur Les Quatre Notes Fondatrices De Parsifall)
TTITLE8=Tales From Hyperion
TTITLE9=Ritournelle Part1, Part2-Message
EXTD=
EXTT0=
EXTT1=
EXTT2=
EXTT3=
EXTT4=
EXTT5=
EXTT6=
EXTT7=
EXTT8=
EXTT9=
PLAYORDER=
